<mxfile host="app.diagrams.net" agent="Mozilla/5.0 (Windows NT 10.0; Win64; x64) AppleWebKit/537.36 (KHTML, like Gecko) Chrome/129.0.0.0 Safari/537.36" version="24.7.17">
  <diagram name="Страница — 1" id="RTHZf5qvnwvCx4UigXUQ">
    <mxGraphModel dx="1591" dy="989" grid="1" gridSize="10" guides="1" tooltips="1" connect="1" arrows="1" fold="1" page="1" pageScale="1" pageWidth="827" pageHeight="1169" math="0" shadow="0">
      <root>
        <mxCell id="0" />
        <mxCell id="1" parent="0" />
        <mxCell id="22cp1c2WLcTHArJptTav-27" value="" style="rounded=1;whiteSpace=wrap;html=1;" vertex="1" parent="1">
          <mxGeometry x="60" y="409" width="230" height="510" as="geometry" />
        </mxCell>
        <mxCell id="22cp1c2WLcTHArJptTav-4" style="edgeStyle=orthogonalEdgeStyle;rounded=0;orthogonalLoop=1;jettySize=auto;html=1;entryX=0.5;entryY=0;entryDx=0;entryDy=0;" edge="1" parent="1" source="22cp1c2WLcTHArJptTav-1" target="22cp1c2WLcTHArJptTav-2">
          <mxGeometry relative="1" as="geometry" />
        </mxCell>
        <mxCell id="22cp1c2WLcTHArJptTav-5" style="edgeStyle=orthogonalEdgeStyle;rounded=0;orthogonalLoop=1;jettySize=auto;html=1;entryX=0.5;entryY=0;entryDx=0;entryDy=0;" edge="1" parent="1" source="22cp1c2WLcTHArJptTav-1" target="22cp1c2WLcTHArJptTav-3">
          <mxGeometry relative="1" as="geometry">
            <Array as="points">
              <mxPoint x="400" y="190" />
              <mxPoint x="605" y="190" />
            </Array>
          </mxGeometry>
        </mxCell>
        <mxCell id="22cp1c2WLcTHArJptTav-1" value="Настройка мобильного приложения Pharma" style="rounded=1;whiteSpace=wrap;html=1;" vertex="1" parent="1">
          <mxGeometry x="300" y="40" width="200" height="100" as="geometry" />
        </mxCell>
        <mxCell id="22cp1c2WLcTHArJptTav-29" style="edgeStyle=orthogonalEdgeStyle;rounded=0;orthogonalLoop=1;jettySize=auto;html=1;entryX=0.5;entryY=0;entryDx=0;entryDy=0;" edge="1" parent="1" source="22cp1c2WLcTHArJptTav-2" target="22cp1c2WLcTHArJptTav-27">
          <mxGeometry relative="1" as="geometry" />
        </mxCell>
        <mxCell id="22cp1c2WLcTHArJptTav-2" value="Конфигурация приложения" style="rounded=1;whiteSpace=wrap;html=1;" vertex="1" parent="1">
          <mxGeometry x="100" y="249" width="150" height="80" as="geometry" />
        </mxCell>
        <mxCell id="22cp1c2WLcTHArJptTav-15" style="edgeStyle=orthogonalEdgeStyle;rounded=0;orthogonalLoop=1;jettySize=auto;html=1;" edge="1" parent="1" source="22cp1c2WLcTHArJptTav-3" target="22cp1c2WLcTHArJptTav-7">
          <mxGeometry relative="1" as="geometry" />
        </mxCell>
        <mxCell id="22cp1c2WLcTHArJptTav-3" value="Функционал Анкетирования" style="rounded=1;whiteSpace=wrap;html=1;" vertex="1" parent="1">
          <mxGeometry x="530" y="230" width="150" height="80" as="geometry" />
        </mxCell>
        <mxCell id="22cp1c2WLcTHArJptTav-19" style="edgeStyle=orthogonalEdgeStyle;rounded=0;orthogonalLoop=1;jettySize=auto;html=1;" edge="1" parent="1" source="22cp1c2WLcTHArJptTav-7" target="22cp1c2WLcTHArJptTav-8">
          <mxGeometry relative="1" as="geometry" />
        </mxCell>
        <mxCell id="22cp1c2WLcTHArJptTav-7" value="&lt;i&gt;&lt;font style=&quot;font-size: 12px;&quot;&gt;1. Обычная анкета&lt;font style=&quot;font-size: 12px;&quot;&gt;&amp;nbsp;&lt;/font&gt;&lt;/font&gt;&lt;/i&gt;&lt;div&gt;&lt;font style=&quot;font-size: 12px;&quot;&gt;&lt;i&gt;2. Анкета по брендам&lt;/i&gt;&lt;/font&gt;&lt;/div&gt;&lt;div&gt;&lt;font style=&quot;font-size: 12px;&quot;&gt;&lt;i&gt;3. Анкета на визит к первостольнику&lt;/i&gt;&lt;/font&gt;&lt;/div&gt;&lt;div&gt;&lt;font style=&quot;font-size: 12px;&quot;&gt;&lt;i style=&quot;&quot;&gt;4. Анкета к договоренностям с заведующей аптеки&lt;br&gt;5. Коллекция анкет по брендам&lt;br&gt;6. Анкеты на групповые визиты&lt;br&gt;&lt;br&gt;&lt;br&gt;7. Анкеты Тестирования&lt;br&gt;&lt;br&gt;&lt;br&gt;8. Анкеты Категоризации&lt;/i&gt;&lt;/font&gt;&lt;/div&gt;" style="rounded=1;whiteSpace=wrap;html=1;" vertex="1" parent="1">
          <mxGeometry x="460" y="360" width="290" height="310" as="geometry" />
        </mxCell>
        <mxCell id="22cp1c2WLcTHArJptTav-8" value="" style="rounded=1;whiteSpace=wrap;html=1;" vertex="1" parent="1">
          <mxGeometry x="512.5" y="730" width="185" height="220" as="geometry" />
        </mxCell>
        <mxCell id="22cp1c2WLcTHArJptTav-9" value="&lt;font style=&quot;font-size: 10px;&quot;&gt;Название анкеты&lt;/font&gt;" style="rounded=0;whiteSpace=wrap;html=1;" vertex="1" parent="1">
          <mxGeometry x="551" y="740" width="103" height="30" as="geometry" />
        </mxCell>
        <mxCell id="22cp1c2WLcTHArJptTav-10" value="&lt;font style=&quot;font-size: 10px;&quot;&gt;Наименование вопроса&lt;/font&gt;" style="rounded=0;whiteSpace=wrap;html=1;" vertex="1" parent="1">
          <mxGeometry x="537.5" y="780" width="130" height="30" as="geometry" />
        </mxCell>
        <mxCell id="22cp1c2WLcTHArJptTav-11" value="&lt;font style=&quot;font-size: 10px;&quot;&gt;Добавить связь с ...&lt;/font&gt;" style="rounded=0;whiteSpace=wrap;html=1;" vertex="1" parent="1">
          <mxGeometry x="542.5" y="820" width="120" height="30" as="geometry" />
        </mxCell>
        <mxCell id="22cp1c2WLcTHArJptTav-12" value="..." style="rounded=0;whiteSpace=wrap;html=1;" vertex="1" parent="1">
          <mxGeometry x="563.5" y="860" width="78" height="20" as="geometry" />
        </mxCell>
        <mxCell id="22cp1c2WLcTHArJptTav-16" value="&lt;font style=&quot;font-size: 10px;&quot;&gt;Выбор раздела&lt;/font&gt;" style="text;html=1;align=center;verticalAlign=middle;resizable=0;points=[];autosize=1;strokeColor=none;fillColor=none;" vertex="1" parent="1">
          <mxGeometry x="355" y="180" width="90" height="30" as="geometry" />
        </mxCell>
        <mxCell id="22cp1c2WLcTHArJptTav-17" value="&lt;font style=&quot;font-size: 10px;&quot;&gt;Выбор типа анкетирования&lt;/font&gt;" style="text;html=1;align=center;verticalAlign=middle;resizable=0;points=[];autosize=1;strokeColor=none;fillColor=none;" vertex="1" parent="1">
          <mxGeometry x="610" y="320" width="150" height="30" as="geometry" />
        </mxCell>
        <mxCell id="22cp1c2WLcTHArJptTav-18" value="&lt;font style=&quot;font-size: 10px;&quot;&gt;Загрузить данные&lt;/font&gt;" style="rounded=0;whiteSpace=wrap;html=1;" vertex="1" parent="1">
          <mxGeometry x="552.5" y="920" width="105" height="20" as="geometry" />
        </mxCell>
        <mxCell id="22cp1c2WLcTHArJptTav-20" value="&lt;font style=&quot;font-size: 10px;&quot;&gt;Открытие формы для &lt;br&gt;заполнения данных и загрузки&lt;/font&gt;" style="text;html=1;align=center;verticalAlign=middle;resizable=0;points=[];autosize=1;strokeColor=none;fillColor=none;" vertex="1" parent="1">
          <mxGeometry x="600" y="680" width="170" height="40" as="geometry" />
        </mxCell>
        <mxCell id="22cp1c2WLcTHArJptTav-21" value="Настройка вневизитных активностей" style="rounded=1;whiteSpace=wrap;html=1;" vertex="1" parent="1">
          <mxGeometry x="93.37" y="429" width="165" height="80" as="geometry" />
        </mxCell>
        <mxCell id="22cp1c2WLcTHArJptTav-22" value="Настройка договоренностей на визите (к врачу / в организацию)" style="rounded=1;whiteSpace=wrap;html=1;" vertex="1" parent="1">
          <mxGeometry x="93.37" y="534" width="165" height="80" as="geometry" />
        </mxCell>
        <mxCell id="22cp1c2WLcTHArJptTav-24" value="Настройка фильтров (к врачу / в организацию)" style="rounded=1;whiteSpace=wrap;html=1;" vertex="1" parent="1">
          <mxGeometry x="89.12" y="649" width="171.75" height="70" as="geometry" />
        </mxCell>
        <mxCell id="22cp1c2WLcTHArJptTav-26" value="Настройка констант" style="rounded=1;whiteSpace=wrap;html=1;" vertex="1" parent="1">
          <mxGeometry x="100.87" y="749" width="150" height="60" as="geometry" />
        </mxCell>
        <mxCell id="22cp1c2WLcTHArJptTav-28" value="..." style="rounded=1;whiteSpace=wrap;html=1;" vertex="1" parent="1">
          <mxGeometry x="122.5" y="859" width="105" height="40" as="geometry" />
        </mxCell>
        <mxCell id="22cp1c2WLcTHArJptTav-30" value="&lt;font style=&quot;font-size: 10px;&quot;&gt;Выбор&lt;br&gt;раздела конфигурации&lt;/font&gt;" style="text;html=1;align=center;verticalAlign=middle;resizable=0;points=[];autosize=1;strokeColor=none;fillColor=none;" vertex="1" parent="1">
          <mxGeometry x="50" y="349" width="130" height="40" as="geometry" />
        </mxCell>
      </root>
    </mxGraphModel>
  </diagram>
</mxfile>
